Coordinates
version=1
nRows=38
nColumns=12
inDegrees=yes

Units are S.I. units (second, meters, Newtons, ...)
Angles are in degrees

endheader
time	SC_y	SC_z	SC_x	AC_y	AC_z	AC_x	GH_y	GH_z	GH_yy	EL_x	PS_y
       0.0              -58.66         -2.379           42.7          50.58         -19.67         -3.798          130.1          65.18          72.23          39.78          147.3
   0.02056              -58.66         -2.376           42.7          50.58         -19.66         -3.795          130.0          65.18           72.2          39.79          147.3
   0.04112              -58.66         -2.373           42.7          50.57         -19.66         -3.792          130.0          65.17          72.17           39.8          147.2
   0.06168              -58.66          -2.37           42.7          50.57         -19.66         -3.789          130.0          65.16          72.14          39.81          147.2
   0.08224              -58.65         -2.367           42.7          50.57         -19.66         -3.785          130.0          65.16          72.11          39.82          147.2
    0.1028              -58.65         -2.363           42.7          50.57         -19.66         -3.781          129.9          65.15          72.08          39.83          147.2
    0.1234              -58.65         -2.359           42.7          50.57         -19.66         -3.777          129.9          65.14          72.04          39.85          147.2
    0.1439              -58.64         -2.355           42.7          50.57         -19.65         -3.772          129.9          65.13           72.0          39.86          147.2
    0.1645              -58.64         -2.351           42.7          50.57         -19.65         -3.768          129.8          65.12          71.96          39.87          147.2
     0.185              -58.64         -2.346           42.7          50.57         -19.65         -3.763          129.8          65.11          71.92          39.89          147.2
    0.2056              -58.63         -2.341           42.7          50.56         -19.65         -3.757          129.8           65.1          71.87          39.91          147.2
    0.2262              -58.63         -2.335           42.7          50.56         -19.64         -3.751          129.7          65.09          71.82          39.92          147.2
    0.2467              -58.62         -2.329           42.7          50.56         -19.64         -3.745          129.7          65.08          71.76          39.94          147.1
    0.2673              -58.62         -2.323           42.7          50.56         -19.64         -3.738          129.6          65.07           71.7          39.96          147.1
    0.2878              -58.61         -2.316           42.7          50.56         -19.64          -3.73          129.6          65.05          71.64          39.99          147.1
    0.3084              -58.61         -2.308           42.7          50.55         -19.63         -3.722          129.5          65.04          71.56          40.01          147.1
     0.329               -58.6           -2.3           42.7          50.55         -19.63         -3.714          129.5          65.02          71.49          40.04          147.1
    0.3495              -58.59         -2.291           42.7          50.55         -19.62         -3.704          129.4           65.0           71.4          40.07          147.0
    0.3701              -58.59         -2.281           42.7          50.55         -19.62         -3.694          129.3          64.98          71.31           40.1          147.0
    0.3906              -58.58         -2.271           42.7          50.54         -19.61         -3.682          129.2          64.96          71.21          40.13          147.0
    0.4112              -58.57         -2.259           42.7          50.54         -19.61          -3.67          129.1          64.93           71.1          40.17          147.0
    0.4318              -58.56         -2.246           42.7          50.53          -19.6         -3.656          129.0          64.91          70.98          40.21          146.9
    0.4523              -58.55         -2.232           42.7          50.53         -19.59          -3.64          128.9          64.88          70.85          40.26          146.9
    0.4729              -58.54         -2.216           42.7          50.53         -19.59         -3.623          128.8          64.84           70.7          40.31          146.9
    0.4934              -58.52         -2.198           42.7          50.52         -19.58         -3.605          128.7          64.81          70.54          40.37          146.8
     0.514              -58.51         -2.179           42.7          50.51         -19.57         -3.584          128.5          64.77          70.35          40.43          146.8
    0.5346              -58.49         -2.157          42.69          50.51         -19.56          -3.56          128.4          64.72          70.15           40.5          146.7
    0.5551              -58.47         -2.132          42.69           50.5         -19.55         -3.534          128.2          64.67          69.92          40.58          146.7
    0.5757              -58.45         -2.104          42.69          50.49         -19.53         -3.504          128.0          64.61          69.66          40.67          146.6
    0.5962              -58.42         -2.073          42.69          50.48         -19.52          -3.47          127.7          64.55          69.36          40.77          146.5
    0.6168               -58.4         -2.037          42.69          50.47          -19.5         -3.431          127.5          64.47          69.02          40.89          146.4
    0.6374              -58.36         -1.995          42.69          50.46         -19.48         -3.387          127.1          64.39          68.63          41.02          146.3
    0.6579              -58.33         -1.947          42.69          50.44         -19.46         -3.335          126.8          64.29          68.18          41.18          146.2
    0.6785              -58.28         -1.892          42.69          50.42         -19.43         -3.276          126.4          64.17          67.66          41.36          146.1
     0.699              -58.23         -1.826          42.69           50.4          -19.4         -3.206          125.9          64.04          67.05          41.57          145.9
    0.7196              -58.17          -1.75          42.69          50.38         -19.36         -3.124          125.3          63.88          66.33          41.82          145.7
    0.7402               -58.1         -1.658          42.69          50.35         -19.32         -3.026          124.6          63.69          65.48          42.11          145.5
    0.7607              -58.02         -1.549          42.69          50.32         -19.26         -2.909          123.8          63.47          64.46          42.47          145.2
